<?xml version="1.0" encoding="iso-8859-1"?>
<!-- Generator: Adobe Illustrator 18.1.1, SVG Export Plug-In . SVG Version: 6.00 Build 0)  -->
<svg version="1.1" id="Capa_1" xmlns="http://www.w3.org/2000/svg" xmlns:xlink="http://www.w3.org/1999/xlink" x="0px" y="0px"
	 viewBox="0 0 478.161 478.161" style="enable-background:new 0 0 478.161 478.161;" xml:space="preserve">
<g>
	<path id="Vimeo_2_" d="M408.173,31.91c-66.405-2.152-111.293,35.125-135.002,111.93c12.133-4.981,23.868-7.511,35.484-7.511
		c24.247,0,34.966,13.588,32.157,40.863c-1.395,16.576-12.114,40.584-32.157,72.123c-20.083,31.658-35.026,47.279-44.888,47.279
		c-12.97,0-24.725-24.307-35.464-73.119c-3.666-14.285-10.061-50.865-19.366-109.719c-8.607-54.571-31.479-80.013-68.597-76.367
		c-15.66,1.415-39.21,15.74-70.569,42.995C46.8,101.124,23.629,122.064,0,142.824l22.534,29.009
		C43.951,156.771,56.523,149.2,60.01,149.2c16.497,0,31.778,25.881,46.123,77.463c12.871,47.398,25.741,94.677,38.632,142.174
		c19.166,51.502,42.895,77.503,70.689,77.503c45.007,0,100.116-42.437,165.066-127.012c62.699-81.168,95.254-144.984,97.386-191.664
		C480.894,65.341,457.624,33.384,408.173,31.91z"/>
</g>
<g>
</g>
<g>
</g>
<g>
</g>
<g>
</g>
<g>
</g>
<g>
</g>
<g>
</g>
<g>
</g>
<g>
</g>
<g>
</g>
<g>
</g>
<g>
</g>
<g>
</g>
<g>
</g>
<g>
</g>
</svg>
